<?xml version="1.0" encoding="UTF-8"?>
<svg width="65px" height="24px" viewBox="0 0 65 24" version="1.1" xmlns="http://www.w3.org/2000/svg" xmlns:xlink="http://www.w3.org/1999/xlink">
    <!-- Generator: Sketch 52.3 (67297) - http://www.bohemiancoding.com/sketch -->
    <title>Logo</title>
    <desc>Created with Sketch.</desc>
    <g id="Testing" stroke="none" stroke-width="1" fill="none" fill-rule="evenodd">
        <g id="Desktop-HD" transform="translate(-130.000000, -53.000000)" fill="#FFFFFF">
            <g id="Section-1-:-Intro">
                <g id="Header">
                    <g id="Top-Header" transform="translate(0.000000, 20.000000)">
                        <g id="Logo">
                            <g transform="translate(129.304286, 33.000000)">
                                <g id="PRODUCT_logo_Final-B&amp;W">
                                    <polygon id="Path" points="4.25275367 4.2201773 4.25275367 10.7259106 9.45420229 10.7259106 9.11807735 13.9460879 4.25275367 13.9460879 4.25275367 20.7798227 10.6957143 20.7798227 10.6957143 24 0.695714286 24 0.695714286 1 10.6957143 1 10.6957143 4.2201773"></polygon>
                                    <path d="M38.3604251,21.2961517 L29.9980134,21.2961517 L28.9741839,23.9955382 L24.6957143,23.9955382 L34.1786505,0 L43.6957143,24 L39.4138319,24 L38.3604251,21.2961517 Z M31.2903137,17.9297267 L37.0681248,17.9297267 L34.1786505,9.8337981 L31.2903137,17.9297267 Z" id="Shape" fill-rule="nonzero"></path>
                                    <rect id="Rectangle" x="43.6957143" y="1" width="5" height="23"></rect>
                                    <path d="M56.840503,14.4058525 L53.6393763,14.4058525 L53.6393763,24 L49.6957143,24 L49.6957143,1 L57.5402213,1 C57.5402213,1 65.4174044,1 65.4174044,7.70842498 C65.4174044,11.4211533 62.9937425,13.0641675 60.8731791,13.8196902 L65.6957143,24 L61.3520523,24 L56.840503,14.4058525 Z M53.6393763,10.5941475 L57.5447284,10.5941475 C57.5447284,10.5941475 61.4827565,10.5941475 61.4827565,7.70292627 C61.4827565,4.84359759 57.5447284,4.84359759 57.5447284,4.84359759 L53.6393763,4.84359759 L53.6393763,10.5941475 Z" id="Shape" fill-rule="nonzero"></path>
                                    <path d="M22.2531546,10.0411777 C23.7440312,10.4224355 24.8383901,11.0345535 25.5362313,11.8775318 C26.2122662,12.668455 26.6146382,13.6578539 26.6830595,14.6974861 C26.7520191,15.7314693 26.5391438,16.797036 26.0444336,17.8941862 C25.5404143,19.006806 24.8476492,20.0231743 23.997008,20.8980014 C23.1090205,21.8173446 22.066573,22.5725973 20.9174371,23.1291492 C19.7522489,23.7063114 18.4694742,24.0043938 17.1700075,23.9999511 C16.4476054,23.9994271 15.7287347,23.898839 15.033759,23.7010359 C14.3621217,23.5185432 13.7313404,23.2092138 13.1752228,22.7896267 C12.652738,22.3955341 12.2371619,21.8762243 11.9665558,21.2792592 C11.6959644,20.677669 11.6281291,19.9790723 11.7630501,19.1834692 C11.8380062,18.7480683 11.9736767,18.4397533 12.1700616,18.2585243 C12.3634483,18.0780472 12.5523377,17.9957045 12.7322323,18.0137522 C12.9325344,18.0396888 13.1080067,18.1611104 13.2033313,18.3397389 C13.3292575,18.5405197 13.3633626,18.8127393 13.3056464,19.1563977 C13.2384813,19.4345754 13.3286933,19.7273064 13.5406337,19.9189133 C13.7695115,20.127578 14.036883,20.2892868 14.3276726,20.3949216 C14.6417726,20.5137974 14.9684914,20.5959308 15.3013522,20.6396936 C15.5560983,20.6778657 15.8129218,20.700467 16.0704017,20.7073725 C17.3881297,20.7073725 18.5214658,20.4761363 19.4704099,20.0136638 C20.3472865,19.606556 21.1215987,19.0066897 21.7359576,18.2585243 C22.2794527,17.5883299 22.6622043,16.8018241 22.8546773,15.9596976 C23.0386888,15.1943929 23.0336714,14.3955887 22.8400608,13.6326714 C22.648896,12.9118569 22.2433693,12.2665792 21.6774919,11.7827814 C21.0973318,11.2751896 20.3324049,10.9849223 19.3827112,10.9119795 C18.2216414,11.1834471 17.4083679,11.2586459 16.9428906,11.1375759 C16.4774132,11.0165058 16.2641632,10.7487982 16.3031403,10.3344529 C16.3221008,10.1357108 16.4289969,9.9560078 16.5943447,9.84490884 C16.7994143,9.70556189 17.0323242,9.61278918 17.2768199,9.57306525 C17.5928269,9.51534896 17.9135711,9.48777839 18.2347587,9.49072259 C18.6109879,9.4920087 18.9866733,9.51952253 19.3591001,9.57306525 C19.9958616,9.44793181 20.579025,9.12981492 21.0298713,8.66165605 C21.5068719,8.18009757 21.8884075,7.61206553 22.1542126,6.98773122 C22.4256353,6.34914114 22.5828209,5.66757997 22.6185656,4.9742839 C22.6626705,4.31129526 22.5786796,3.64600203 22.3712105,3.01497971 C22.1787921,2.43071172 21.8204427,1.91555837 21.3401895,1.53281177 C20.8552236,1.14253011 20.2259672,0.947389273 19.4524204,0.947389273 C19.0860609,0.964673753 18.7304336,1.07699299 18.4202751,1.27337598 C18.014471,1.51582046 17.6513065,1.82375665 17.3454048,2.18478519 C16.9810006,2.61703998 16.6782776,3.09802991 16.4459317,3.61393799 C16.1762982,4.20784101 16.0046603,4.84175718 15.9377294,5.49089952 C15.8918536,5.74421985 15.8797547,6.00253512 15.9017505,6.25905505 C15.932134,6.46253694 15.9271889,6.66975904 15.8871341,6.87154911 C15.8496989,7.04231883 15.7378616,7.18722587 15.5824376,7.2663427 C15.4205324,7.35432527 15.1263298,7.39831655 14.6998296,7.39831655 C13.8475789,7.39831655 13.2809109,7.2351352 12.9998255,6.9087725 C12.7290867,6.60548793 12.5988036,6.20149085 12.6411606,5.79658256 C12.6849105,5.55177618 12.7476905,5.31078029 12.8289256,5.07580226 C12.9593362,4.67730633 13.122164,4.29023433 13.3157654,3.91849304 C13.559667,3.44742297 13.8413035,2.99700543 14.1578971,2.57168291 C14.5164785,2.09001329 14.9438162,1.66395253 15.4261541,1.30721543 C15.9582987,0.910452996 16.5454211,0.593900426 17.1688832,0.367606685 C17.8967897,0.111511025 18.6643059,-0.0126211322 19.4355553,0.00101263591 C20.6550908,0.00101263591 21.6864866,0.186753621 22.5297426,0.55823559 C23.3729986,0.92971756 24.0359852,1.41850963 24.5187024,2.02461179 C24.9926714,2.60941549 25.3031034,3.31014891 25.4181755,4.05497883 C25.5357048,4.79844956 25.4974118,5.55833843 25.3057413,6.28612661 C25.0989222,7.05675986 24.7326886,7.77507244 24.230871,8.39432439 C23.6903699,9.07185105 23.0182852,9.63213602 22.2554033,10.0411777" id="Path"></path>
                                </g>
                            </g>
                        </g>
                    </g>
                </g>
            </g>
        </g>
    </g>
</svg>