<?xml version="1.0" encoding="UTF-8"?>
<svg width="20px" height="20px" viewBox="0 0 20 20" version="1.1" xmlns="http://www.w3.org/2000/svg" xmlns:xlink="http://www.w3.org/1999/xlink">
    <!-- Generator: Sketch 52.3 (67297) - http://www.bohemiancoding.com/sketch -->
    <title>s11instagram</title>
    <desc>Created with Sketch.</desc>
    <defs>
        <path d="M18.0418922,4 L9.95810785,4 C6.67279333,4 4,6.67279333 4,9.95810785 L4,18.0418922 C4,21.3272067 6.67279333,24 9.95810785,24 L18.0418922,24 C21.3272067,24 24,21.3272067 24,18.0418922 L24,9.95810785 C23.9999637,6.67279333 21.3271704,4 18.0418922,4 Z M21.9880007,18.0418922 C21.9880007,20.2212495 20.2212495,21.9880007 18.0418922,21.9880007 L9.95810785,21.9880007 C7.77875049,21.9880007 6.01199926,20.2212495 6.01199926,18.0418922 L6.01199926,9.95810785 C6.01199926,7.7787142 7.77875049,6.01199926 9.95810785,6.01199926 L18.0418922,6.01199926 C20.2212495,6.01199926 21.9880007,7.7787142 21.9880007,9.95810785 L21.9880007,18.0418922 Z M14,8.82728833 C11.1477622,8.82728833 8.82728833,11.1477622 8.82728833,13.9999637 C8.82728833,16.8521652 11.1477622,19.1726754 14,19.1726754 C16.8522378,19.1726754 19.1727117,16.8522015 19.1727117,13.9999637 C19.1727117,11.1477259 16.8522378,8.82728833 14,8.82728833 Z M14,17.1607124 C12.2543727,17.1607124 10.8392876,15.7456273 10.8392876,14 C10.8392876,12.2543727 12.254409,10.8392876 14,10.8392876 C15.7456273,10.8392876 17.1607124,12.2543727 17.1607124,14 C17.1607124,15.745591 15.745591,17.1607124 14,17.1607124 Z M19.1827292,10.1056124 C19.8672795,10.1056124 20.4222171,9.5506747 20.4222171,8.86612441 C20.4222171,8.18157412 19.8672795,7.62663647 19.1827292,7.62663647 C18.4981789,7.62663647 17.9432413,8.18157412 17.9432413,8.86612441 C17.9432413,9.5506747 18.4981789,10.1056124 19.1827292,10.1056124 Z" id="path-1"></path>
    </defs>
    <g id="Testing" stroke="none" stroke-width="1" fill="none" fill-rule="evenodd">
        <g id="Desktop-HD" transform="translate(-1246.000000, -6623.000000)">
            <g id="Social" transform="translate(1150.000000, 6619.000000)">
                <g id="Instagram" transform="translate(92.000000, 0.000000)">
                    <g id="Base-UI/Icon-Social/Default/Instagram">
                        <mask id="mask-2" fill="white">
                            <use xlink:href="#path-1"></use>
                        </mask>
                        <use id="Instagram" fill="#FFFFFF" fill-rule="nonzero" xlink:href="#path-1"></use>
                        <g id="Base-UI/Color/White-&amp;-Light/White" mask="url(#mask-2)" fill="#FFFFFF" fill-rule="evenodd">
                            <rect id="Base" x="0" y="0" width="28" height="28"></rect>
                        </g>
                    </g>
                </g>
            </g>
        </g>
    </g>
</svg>