<?xml version="1.0" encoding="UTF-8"?>
<svg width="22px" height="18px" viewBox="0 0 22 18" version="1.1" xmlns="http://www.w3.org/2000/svg" xmlns:xlink="http://www.w3.org/1999/xlink">
    <!-- Generator: Sketch 52.3 (67297) - http://www.bohemiancoding.com/sketch -->
    <title>s11twitter</title>
    <desc>Created with Sketch.</desc>
    <defs>
        <path d="M22.4075774,7.84677477 C23.3394517,7.28359169 24.055183,6.39381384 24.3916931,5.33302379 C23.5193552,5.85377527 22.5538299,6.23180227 21.5248853,6.43495964 C20.7017296,5.55161083 19.5291211,5 18.2309683,5 C15.7382045,5 13.7165549,7.0341453 13.7165549,9.54403886 C13.7165549,9.90149296 13.7579715,10.2473748 13.8343335,10.5803986 C10.0835392,10.3913851 6.75855983,8.58097007 4.53241558,5.83191657 C4.14284033,6.50310736 3.92152018,7.28359169 3.92152018,8.11679406 C3.92152018,9.69319237 4.71879045,11.0844346 5.92893282,11.8983499 C5.18861042,11.8752054 4.49229321,11.6707622 3.88528062,11.3300236 L3.88528062,11.3878848 C3.88528062,13.5891849 5.43969879,15.4253161 7.50535357,15.8432031 C7.12613249,15.9473534 6.72879162,16.002643 6.31591952,16.002643 C6.02600306,16.002643 5.74255795,15.9743553 5.46687846,15.9203515 C6.0415343,17.7256233 7.70855395,19.0397171 9.68360984,19.0770055 C8.13825156,20.2946639 6.19166961,21.0211444 4.07683257,21.0211444 C3.71314272,21.0211444 3.35333569,21.0005715 3,20.9581399 C4.99705848,22.2478034 7.36945523,23 9.91916696,23 C18.2206142,23 22.760913,16.075934 22.760913,10.0712194 C22.760913,9.87320523 22.755736,9.6790485 22.7479703,9.48360597 C23.6293682,8.84327452 24.395576,8.0422173 25,7.13186656 C24.1910813,7.49189228 23.3200377,7.73619544 22.4075774,7.84677477 Z" id="path-1"></path>
    </defs>
    <g id="Testing" stroke="none" stroke-width="1" fill="none" fill-rule="evenodd">
        <g id="Desktop-HD" transform="translate(-1153.000000, -6624.000000)">
            <g id="Social" transform="translate(1150.000000, 6619.000000)">
                <g id="Twitter">
                    <g id="Base-UI/Icon-Social/Default/Twitter">
                        <mask id="mask-2" fill="white">
                            <use xlink:href="#path-1"></use>
                        </mask>
                        <use id="Twitter" fill="#FFFFFF" fill-rule="evenodd" xlink:href="#path-1"></use>
                        <g id="Base-UI/Color/White-&amp;-Light/White" mask="url(#mask-2)" fill="#FFFFFF" fill-rule="evenodd">
                            <rect id="Base" x="0" y="0" width="28" height="28"></rect>
                        </g>
                    </g>
                </g>
            </g>
        </g>
    </g>
</svg>