<?xml version="1.0" encoding="UTF-8"?>
<svg width="64px" height="64px" viewBox="0 0 64 64" version="1.1" xmlns="http://www.w3.org/2000/svg" xmlns:xlink="http://www.w3.org/1999/xlink">
    <!-- Generator: Sketch 52.3 (67297) - http://www.bohemiancoding.com/sketch -->
    <title>Icon</title>
    <desc>Created with Sketch.</desc>
    <defs>
        <path d="M32,0 L32,0 C49.673112,-3.24649801e-15 64,14.326888 64,32 L64,32 C64,49.673112 49.673112,64 32,64 L32,64 C14.326888,64 2.164332e-15,49.673112 0,32 L0,32 C-2.164332e-15,14.326888 14.326888,3.24649801e-15 32,0 Z" id="path-1"></path>
        <path d="M26.4786827,17.344 C26.5350788,16.9051429 26.5773758,16.4662857 26.5773758,16 C26.5773758,15.5337143 26.5350788,15.0948571 26.4786827,14.656 L29.453575,12.3931429 C29.7214563,12.1874286 29.7919514,11.8171429 29.6227632,11.5154286 L26.8029601,6.77028571 C26.6337719,6.46857143 26.2530985,6.35885714 25.9429201,6.46857143 L22.4322652,7.84 C21.6991164,7.29142857 20.9095715,6.83885714 20.0495316,6.496 L19.513769,2.86171429 C19.471472,2.53257143 19.1753926,2.28571429 18.8229172,2.28571429 L13.183311,2.28571429 C12.8308356,2.28571429 12.5347563,2.53257143 12.4924592,2.86171429 L11.9566966,6.496 C11.0966567,6.83885714 10.3071118,7.30514286 9.57396299,7.84 L6.0633081,6.46857143 C5.73903074,6.34514286 5.37245633,6.46857143 5.20326815,6.77028571 L2.38346502,11.5154286 C2.20017782,11.8171429 2.28477191,12.1874286 2.55265321,12.3931429 L5.52754551,14.656 C5.47114944,15.0948571 5.4288524,15.5474286 5.4288524,16 C5.4288524,16.4525714 5.47114944,16.9051429 5.52754551,17.344 L2.55265321,19.6068571 C2.28477191,19.8125714 2.21427683,20.1828571 2.38346502,20.4845714 L5.20326815,25.2297143 C5.37245633,25.5314286 5.75312976,25.6411429 6.0633081,25.5314286 L9.57396299,24.16 C10.3071118,24.7085714 11.0966567,25.1611429 11.9566966,25.504 L12.4924592,29.1382857 C12.5347563,29.4674286 12.8308356,29.7142857 13.183311,29.7142857 L18.8229172,29.7142857 C19.1753926,29.7142857 19.471472,29.4674286 19.513769,29.1382857 L20.0495316,25.504 C20.9095715,25.1611429 21.6991164,24.6948571 22.4322652,24.16 L25.9429201,25.5314286 C26.2671975,25.6548571 26.6337719,25.5314286 26.8029601,25.2297143 L29.6227632,20.4845714 C29.7919514,20.1828571 29.7214563,19.8125714 29.453575,19.6068571 L26.4786827,17.344 L26.4786827,17.344 Z M16.0031141,20.8 C13.2820041,20.8 11.0684586,18.6468571 11.0684586,16 C11.0684586,13.3531429 13.2820041,11.2 16.0031141,11.2 C18.7242241,11.2 20.9377696,13.3531429 20.9377696,16 C20.9377696,18.6468571 18.7242241,20.8 16.0031141,20.8 L16.0031141,20.8 Z" id="path-3"></path>
    </defs>
    <g id="Testing" stroke="none" stroke-width="1" fill="none" fill-rule="evenodd">
        <g id="Desktop-HD" transform="translate(-277.000000, -1325.000000)">
            <g id="Section-3-:-Products" transform="translate(0.000000, 1040.000000)">
                <g id="Features" transform="translate(151.000000, 285.000000)">
                    <g id="Item-1">
                        <g id="Features">
                            <g id="Icon" transform="translate(126.000000, 0.000000)">
                                <g id="Base-UI/Border/Rounded-(100%)/1px/Secondary" opacity="0.25">
                                    <mask id="mask-2" fill="white">
                                        <use xlink:href="#path-1"></use>
                                    </mask>
                                    <path stroke="#2B63E3" stroke-width="1" d="M32,0.5 C14.6030304,0.5 0.5,14.6030304 0.5,32 C0.5,49.3969696 14.6030304,63.5 32,63.5 C49.3969696,63.5 63.5,49.3969696 63.5,32 C63.5,14.6030304 49.3969696,0.5 32,0.5 Z"></path>
                                </g>
                                <g id="Base-UI/Icon/Settings" transform="translate(16.000000, 16.000000)">
                                    <mask id="mask-4" fill="white">
                                        <use xlink:href="#path-3"></use>
                                    </mask>
                                    <use id="Settings" fill="#FFFFFF" fill-rule="evenodd" xlink:href="#path-3"></use>
                                    <g id="Base-UI/Color/Action-Color/Secondary" mask="url(#mask-4)" fill="#2B63E3" fill-rule="evenodd">
                                        <rect id="Base" x="0" y="0" width="32" height="32"></rect>
                                    </g>
                                </g>
                            </g>
                        </g>
                    </g>
                </g>
            </g>
        </g>
    </g>
</svg>